<svg width="40" height="40" viewBox="0 0 40 40" fill="none" xmlns="http://www.w3.org/2000/svg">
<rect width="40" height="40" rx="20" fill="#50AC58" fill-opacity="0.12"/>
<path d="M30.7021 13.333H28.2969C27.7738 13.333 27.2764 13.5727 26.9687 13.9836L18.9069 24.6482L15.2555 19.8149C14.9478 19.4089 14.4554 19.1643 13.9272 19.1643H11.522C11.1887 19.1643 10.9938 19.5263 11.1887 19.7856L17.5786 28.2389C17.7296 28.4399 17.9286 28.6037 18.1591 28.7167C18.3897 28.8296 18.6451 28.8886 18.9043 28.8886C19.1635 28.8886 19.4189 28.8296 19.6495 28.7167C19.88 28.6037 20.079 28.4399 20.23 28.2389L31.0303 13.9543C31.2303 13.695 31.0355 13.333 30.7021 13.333Z" fill="#299578"/>
</svg>
