<svg width="16" height="13" viewBox="0 0 16 13" fill="none" xmlns="http://www.w3.org/2000/svg">
<path d="M1.59961 0.5H14.4004C14.9992 0.500216 15.5 0.997754 15.5 1.625V11.375C15.5 12.0022 14.9992 12.4998 14.4004 12.5H1.59961C1.0008 12.4998 0.5 12.0022 0.5 11.375V1.625C0.5 1.03672 0.94053 0.562683 1.48926 0.505859L1.59961 0.5ZM14.0898 3.70605L8.18164 8.37402L8.17969 8.375C8.12708 8.41677 8.06413 8.4375 8 8.4375C7.93587 8.4375 7.87292 8.41677 7.82031 8.375L7.81836 8.37402L1.91016 3.70605L1.09961 3.06641V11.875H14.9014V11.375L14.9004 4.09766L14.8994 3.06641L14.0898 3.70605ZM1.09961 2.2832L1.29004 2.43359L7.69043 7.48828L8 7.7334L8.30957 7.48828L14.71 2.43262L14.9004 2.28223V1.125H1.09961V2.2832Z" fill="white" stroke="black"/>
</svg>
