<svg width="40" height="43" viewBox="0 0 40 43" fill="none" xmlns="http://www.w3.org/2000/svg">
<path d="M19.8886 1V33.5155M19.8886 33.5155V41.6444M19.8886 33.5155L25.9853 39.6121M19.8886 33.5155L13.792 39.6121M25.9853 3.03222L19.8886 9.12887L13.792 3.03222" stroke="#2F2F2F" stroke-width="2" stroke-linecap="round"/>
<path d="M2.28934 11.1622L9.32917 15.2266M9.32917 15.2266L30.4486 27.4199M9.32917 15.2266L7.09763 6.89844M9.32917 15.2266L1.00098 17.4582M30.4486 27.4199L37.4884 31.4843M30.4486 27.4199L38.7768 25.1883M30.4486 27.4199L32.6802 35.7481" stroke="#2F2F2F" stroke-width="2" stroke-linecap="round"/>
<path d="M37.4878 11.1622L30.448 15.2266M30.448 15.2266L9.32866 27.4199M30.448 15.2266L32.6796 6.89844M30.448 15.2266L38.7762 17.4582M9.32866 27.4199L2.28885 31.4843M9.32866 27.4199L1.00049 25.1883M9.32866 27.4199L7.09714 35.7481" stroke="#2F2F2F" stroke-width="2" stroke-linecap="round"/>
</svg>
