<svg width="52" height="35" viewBox="0 0 52 35" fill="none" xmlns="http://www.w3.org/2000/svg">
<path d="M51.1334 10.3999H47.6667C47.3201 10.3999 46.9734 10.6599 46.8867 11.0065L44.4601 18.1999H42.1201L39.7801 14.2999C39.6067 14.0399 39.3467 13.8665 39.0001 13.8665H35.5335V11.2665C35.5335 10.7465 35.1868 10.3999 34.6668 10.3999H28.6V6.93327H31.2C31.72 6.93327 32.0666 6.58663 32.0666 6.06663V0.866633C32.0666 0.346633 31.72 0 31.2 0H15.6C15.08 0 14.7334 0.346633 14.7334 0.866633V6.06663C14.7334 6.58663 15.08 6.93327 15.6 6.93327H18.2V10.3999H11.2666C11.0066 10.3999 10.8333 10.4865 10.66 10.6599C10.4867 10.8333 10.4 11.0065 10.4 11.2665V13.8665H4.33337C3.81337 13.8665 3.46673 14.2132 3.46673 14.7332V19.9332H1.73337V17.3333C1.73337 16.8133 1.38673 16.4666 0.866734 16.4666C0.346734 16.4666 0 16.8133 0 17.3333V24.2666C0 24.7866 0.346633 25.1333 0.866633 25.1333C1.38663 25.1333 1.73327 24.7866 1.73327 24.2666V21.6666H3.46663V28.6C3.46663 29.12 3.81327 29.4666 4.33327 29.4666H10.8333L14.0399 34.32C14.2133 34.4934 14.4733 34.6666 14.7333 34.6666H39C39.3466 34.6666 39.6066 34.4933 39.78 34.1466L42.12 29.4666H44.5466L46.8866 34.1466C47.06 34.4933 47.32 34.6666 47.6666 34.6666H51.1333C51.6533 34.6666 51.9999 34.32 51.9999 33.8V11.2666C52 10.7466 51.6534 10.3999 51.1334 10.3999ZM16.4666 1.73327H30.3333V5.1999H27.7333H19.0666H16.4666V1.73327ZM19.9334 6.93327H26.8667V10.3999H19.9334V6.93327ZM5.2 27.7333V15.5999H10.4V27.7333H5.2ZM38.3934 32.9333H15.1666L12.1333 28.3422V14.7333V12.1333H19.0666H27.7333H33.8V14.7333C33.8 15.2533 34.1466 15.5999 34.6666 15.5999H38.48L40.7334 19.3555V28.2533L38.3934 32.9333ZM42.4666 27.7333V19.9333H44.2V27.7333H42.4666ZM50.2666 32.9333H48.1866L45.9333 28.5875V19.0697L48.2733 12.1333H50.2666V32.9333Z" fill="#FDDB01"/>
</svg>
