<svg width="38" height="42" viewBox="0 0 38 42" fill="none" xmlns="http://www.w3.org/2000/svg">
<path d="M36.9999 18.7778L19.6524 1.64444C19.2334 1.2339 18.6677 1.00245 18.0774 1H3.24999C2.65326 1 2.08096 1.23413 1.65901 1.65087C1.23705 2.06762 1 2.63285 1 3.22222V38.7778C1 39.3671 1.23705 39.9324 1.65901 40.3491C2.08096 40.7659 2.65326 41 3.24999 41H18.9999C19.6639 38.3752 21.1066 36.0061 23.1432 34.1966C25.1797 32.3872 27.7171 31.2199 30.4299 30.8444L35.0649 30.1778C35.6055 30.1023 36.0999 29.8353 36.4559 29.4264C36.8119 29.0175 37.0053 28.4948 36.9999 27.9556V18.7778ZM36.9999 18.7778H1M9.99997 27.6667H14.5" stroke="#2F2F2F" stroke-width="2" stroke-linecap="round" stroke-linejoin="round"/>
</svg>
