<svg width="34" height="28" viewBox="0 0 34 28" fill="none" xmlns="http://www.w3.org/2000/svg">
<path d="M3.2725 0.252488C3.13438 0.276394 3.00953 0.345457 2.91125 0.443738L2.23125 1.12374C1.98422 1.37077 1.96563 1.76655 2.18875 2.03749L2.72 2.67499V10.4525C2.72 10.827 3.02547 11.1325 3.4 11.1325C3.78516 11.1325 4.08 11.4273 4.08 11.8125C4.08 12.1976 3.78516 12.4925 3.4 12.4925C3.01484 12.4925 2.72 12.1976 2.72 11.8125H1.36C1.36 12.9308 2.28172 13.8525 3.4 13.8525C4.51828 13.8525 5.44 12.9308 5.44 11.8125C5.44 10.9572 4.83437 10.3489 4.08 10.0487V4.33249L11.56 13.4275V16.5725H0V21.3325C0 22.4508 0.921719 23.3725 2.04 23.3725H4.82375C5.14781 25.3009 6.82391 26.7725 8.84 26.7725C10.8561 26.7725 12.5322 25.3009 12.8562 23.3725H22.5037C22.8278 25.3009 24.5039 26.7725 26.52 26.7725C28.5361 26.7725 30.2122 25.3009 30.5363 23.3725H31.96C33.0783 23.3725 34 22.4508 34 21.3325V14.7875C34 13.2309 32.9163 11.855 32.9163 11.855H32.895L30.09 8.11499V8.09374L30.0688 8.07249C29.4419 7.31546 28.5016 6.37249 27.2 6.37249H21.76C20.6417 6.37249 19.72 7.29421 19.72 8.41249V16.5725H18.36V13.1725C18.36 12.9759 18.275 12.79 18.1262 12.6625L3.84625 0.422488C3.70813 0.297644 3.52219 0.236551 3.33625 0.252488C3.315 0.252488 3.29375 0.252488 3.2725 0.252488ZM4.675 2.92999L17 13.4912V16.5725H12.92V13.1725C12.92 13.0184 12.8669 12.867 12.7712 12.7475L4.675 2.92999ZM21.76 7.73249H27.2C27.7339 7.73249 28.4883 8.30624 29.0063 8.92249C29.0116 8.93046 29.0222 8.93577 29.0275 8.94374L29.1338 9.09249H25.84C24.7563 9.09249 23.8 9.96905 23.8 11.1325V13.8525C23.8 14.4183 24.055 14.915 24.4163 15.2762C24.7775 15.6375 25.2742 15.8925 25.84 15.8925H32.64V21.3325C32.64 21.7097 32.3372 22.0125 31.96 22.0125H30.5363C30.2122 20.0841 28.5361 18.6125 26.52 18.6125C24.5039 18.6125 22.8278 20.0841 22.5037 22.0125H21.08V8.41249C21.08 8.0353 21.3828 7.73249 21.76 7.73249ZM25.84 10.4525H30.1537L31.8113 12.6625C31.8113 12.6625 32.4275 13.717 32.555 14.5325H25.84C25.7258 14.5325 25.5425 14.4475 25.3938 14.2987C25.245 14.15 25.16 13.9667 25.16 13.8525V11.1325C25.16 10.7898 25.5638 10.4525 25.84 10.4525ZM1.36 17.9325H19.72V22.0125H12.8562C12.5322 20.0841 10.8561 18.6125 8.84 18.6125C6.82391 18.6125 5.14781 20.0841 4.82375 22.0125H2.04C1.66547 22.0125 1.36 21.707 1.36 21.3325V17.9325ZM8.84 19.9725C10.3514 19.9725 11.56 21.1811 11.56 22.6925C11.56 24.2039 10.3514 25.4125 8.84 25.4125C7.32859 25.4125 6.12 24.2039 6.12 22.6925C6.12 21.1811 7.32859 19.9725 8.84 19.9725ZM26.52 19.9725C28.0314 19.9725 29.24 21.1811 29.24 22.6925C29.24 24.2039 28.0314 25.4125 26.52 25.4125C25.0086 25.4125 23.8 24.2039 23.8 22.6925C23.8 21.1811 25.0086 19.9725 26.52 19.9725Z" fill="black" stroke="black" stroke-width="0.5"/>
</svg>
