<svg width="60" height="24" viewBox="0 0 60 24" fill="none" xmlns="http://www.w3.org/2000/svg">
<path d="M13.2994 19.0288C12.5679 22.2502 10.2329 23.9993 6.75999 23.9993C2.53207 23.9881 0 21.3093 0 16.9143C0 12.4533 2.84553 9.35352 6.88764 9.35352C10.9297 9.35352 13.52 12.2761 13.52 16.8146C13.52 16.9917 13.52 17.324 13.4852 17.7444H5.47051C5.56342 19.2497 5.9481 19.8808 6.77302 19.8808C7.05724 19.8727 7.33022 19.773 7.54749 19.5983C7.76475 19.4234 7.91353 19.1836 7.96959 18.9179L13.2994 19.0288ZM8.08421 14.955C8.02602 13.8377 7.54974 13.184 6.81818 13.184C6.02842 13.184 5.58688 13.815 5.51567 14.955H8.08421Z" fill="white"/>
<path d="M23.3008 23.6899V9.63086H28.7713V23.6899H23.3008Z" fill="white"/>
<path d="M38.8071 23.6909V16.2509C38.8071 14.9557 38.5865 14.5349 37.9244 14.5349C37.1346 14.5349 36.7522 15.1991 36.7522 16.6163V23.6909H31.2803V9.63106H36.7508C36.7162 10.4173 36.7162 10.6494 36.6926 11.1699L36.6345 12.3104C37.5172 10.3287 38.8414 9.33105 40.5255 9.33105C41.1336 9.33727 41.7303 9.4897 42.2603 9.77418C42.7902 10.0587 43.236 10.466 43.5568 10.9585C44.0678 11.7447 44.2884 12.6745 44.2884 14.0914V23.6909H38.8071Z" fill="white"/>
<path d="M59.1432 19.0295C58.4115 22.2508 56.0766 24 52.6037 24C48.3757 24 45.8438 21.3211 45.8438 16.9241C45.8438 12.463 48.6892 9.36328 52.7313 9.36328C56.7734 9.36328 59.3637 12.2859 59.3637 16.8244C59.3637 17.0015 59.3637 17.3338 59.329 17.7542H51.303C51.3959 19.2596 51.7805 19.8905 52.6054 19.8905C52.8896 19.8825 53.1626 19.7829 53.3799 19.608C53.5972 19.4331 53.746 19.1933 53.802 18.9277L59.1432 19.0295ZM53.9396 14.9557C53.8814 13.8384 53.4052 13.1846 52.6736 13.1846C51.8839 13.1846 51.4423 13.8157 51.3711 14.9557H53.9396Z" fill="white"/>
<path d="M29.748 4.30613C29.748 5.62366 28.0982 6.7082 26.1123 6.7082C24.103 6.7082 22.4766 5.60131 22.4766 4.28379C22.4766 2.94434 24.0912 1.85938 26.1123 1.85938C28.1333 1.85938 29.748 2.93565 29.748 4.30613Z" fill="white"/>
<path d="M38.7492 2.04787C38.7492 3.15476 37.3669 4.06262 35.7062 4.06262C34.022 4.06262 32.6631 3.144 32.6631 2.03504C32.6631 0.907862 34.022 0 35.7062 0C37.3903 0 38.7492 0.907862 38.7492 2.04787Z" fill="white"/>
<path d="M46.9023 3.45339C46.9023 4.28345 45.8567 4.95877 44.6142 4.95877C43.3482 4.95877 42.3262 4.26153 42.3262 3.43104C42.3262 2.58981 43.3482 1.90332 44.6142 1.90332C45.8802 1.91449 46.9023 2.59022 46.9023 3.45339Z" fill="white"/>
<path d="M52.7684 6.38881C52.7684 6.96439 52.0367 7.44067 51.1772 7.44067C50.2945 7.44067 49.5859 6.95364 49.5859 6.37805C49.5859 5.7913 50.2945 5.31543 51.1772 5.31543C52.0598 5.31543 52.7684 5.7913 52.7684 6.3913V6.38881Z" fill="white"/>
<path d="M15.3086 1.73828V5.70117C17.3179 5.70117 18.9444 6.78614 18.9444 8.14751C18.9444 9.46504 17.2945 10.5496 15.3086 10.5496V23.6904H20.7791V1.73828H15.3086Z" fill="white"/>
</svg>
