<svg width="100" height="67" viewBox="0 0 100 67" fill="none" xmlns="http://www.w3.org/2000/svg">
<path d="M98.3334 19.9998H91.6668C91.0002 19.9998 90.3334 20.4998 90.1668 21.1664L85.5002 34.9998H81.0002L76.5002 27.4998C76.1668 26.9998 75.6668 26.6664 75.0002 26.6664H68.3336V21.6664C68.3336 20.6664 67.667 19.9998 66.667 19.9998H55V13.3332H60C61 13.3332 61.6666 12.6666 61.6666 11.6666V1.6666C61.6666 0.666601 61 0 60 0H30C29 0 28.3334 0.666601 28.3334 1.6666V11.6666C28.3334 12.6666 29 13.3332 30 13.3332H35V19.9998H21.6666C21.1666 19.9998 20.8332 20.1664 20.5 20.4998C20.1668 20.8332 20 21.1664 20 21.6664V26.6664H8.3334C7.3334 26.6664 6.6668 27.333 6.6668 28.333V38.333H3.3334V33.3332C3.3334 32.3332 2.6668 31.6666 1.6668 31.6666C0.666797 31.6666 0 32.3332 0 33.3332V46.6666C0 47.6666 0.666602 48.3332 1.6666 48.3332C2.6666 48.3332 3.3332 47.6666 3.3332 46.6666V41.6666H6.6666V55C6.6666 56 7.3332 56.6666 8.3332 56.6666H20.8332L26.9998 66C27.3332 66.3334 27.8332 66.6666 28.3332 66.6666H75C75.6666 66.6666 76.1666 66.3332 76.5 65.6666L81 56.6666H85.6666L90.1666 65.6666C90.5 66.3332 91 66.6666 91.6666 66.6666H98.3332C99.3332 66.6666 99.9998 66 99.9998 65V21.6666C100 20.6666 99.3334 19.9998 98.3334 19.9998ZM31.6666 3.3332H58.3332V9.99981H53.3332H36.6666H31.6666V3.3332ZM38.3334 13.3332H51.6668V19.9998H38.3334V13.3332ZM10 53.3332V29.9998H20V53.3332H10ZM73.8334 63.3332H29.1666L23.3332 54.5043V28.3332V23.3332H36.6666H53.3332H65V28.3332C65 29.3332 65.6666 29.9998 66.6666 29.9998H74L78.3334 37.2221V54.3332L73.8334 63.3332ZM81.6666 53.3332V38.3332H85V53.3332H81.6666ZM96.6666 63.3332H92.6666L88.3332 54.976V36.6725L92.8332 23.3332H96.6666V63.3332Z" fill="black"/>
</svg>
