<svg width="17" height="17" viewBox="0 0 17 17" fill="none" xmlns="http://www.w3.org/2000/svg">
<path fill-rule="evenodd" clip-rule="evenodd" d="M7.25 1.5C4.07436 1.5 1.5 4.07436 1.5 7.25C1.5 10.4256 4.07436 13 7.25 13C10.4256 13 13 10.4256 13 7.25C13 4.07436 10.4256 1.5 7.25 1.5ZM0 7.25C0 3.24594 3.24594 0 7.25 0C11.2541 0 14.5 3.24594 14.5 7.25C14.5 11.2541 11.2541 14.5 7.25 14.5C3.24594 14.5 0 11.2541 0 7.25Z" fill="white"/>
<path fill-rule="evenodd" clip-rule="evenodd" d="M13.2197 13.2197C13.5126 12.9268 13.9874 12.9268 14.2803 13.2197L16.2803 15.2197C16.5732 15.5126 16.5732 15.9874 16.2803 16.2803C15.9874 16.5732 15.5126 16.5732 15.2197 16.2803L13.2197 14.2803C12.9268 13.9874 12.9268 13.5126 13.2197 13.2197Z" fill="white"/>
</svg>
