<svg width="19" height="19" viewBox="0 0 19 19" fill="none" xmlns="http://www.w3.org/2000/svg">
<path d="M8.22361 0.876267C8.60418 -0.292089 10.2571 -0.292089 10.6364 0.876267L11.9938 5.05241C12.0767 5.30674 12.2379 5.52835 12.4544 5.68556C12.6708 5.84277 12.9314 5.92753 13.199 5.92773H17.5908C18.82 5.92773 19.33 7.50076 18.3367 8.22384L14.7847 10.8041C14.5678 10.9615 14.4063 11.1834 14.3233 11.4382C14.2404 11.693 14.2402 11.9675 14.3229 12.2224L15.6803 16.3985C16.0609 17.5669 14.7225 18.5399 13.7267 17.8168L10.1747 15.2365C9.95801 15.0792 9.69713 14.9945 9.42939 14.9945C9.16165 14.9945 8.90077 15.0792 8.6841 15.2365L5.1321 17.8168C4.13754 18.5399 2.80046 17.5669 3.17976 16.3985L4.53714 12.2224C4.61982 11.9675 4.61967 11.693 4.53672 11.4382C4.45376 11.1834 4.29226 10.9615 4.07538 10.8041L0.524641 8.22511C-0.468652 7.50203 0.0425834 5.92899 1.27056 5.92899H5.66109C5.92882 5.92906 6.18971 5.84443 6.40641 5.6872C6.62311 5.52997 6.78451 5.30822 6.86751 5.05368L8.22488 0.877535L8.22361 0.876267Z" fill="#FDDB01"/>
</svg>
