<svg width="359" height="343" viewBox="0 0 359 343" fill="none" xmlns="http://www.w3.org/2000/svg">
<path d="M353.507 244.375L321.738 193.871C320.562 192.052 319.038 190.483 317.255 189.253C315.472 188.023 313.464 187.157 311.346 186.703C309.228 186.249 307.042 186.217 304.911 186.608C302.781 186.999 300.748 187.806 298.93 188.983C297.111 190.16 295.542 191.683 294.313 193.466C293.083 195.249 292.216 197.257 291.762 199.375C291.309 201.493 291.276 203.68 291.668 205.81C292.059 207.94 292.866 209.973 294.042 211.791L325.811 262.296H191.405L210.955 241.931C213.885 238.645 215.436 234.356 215.284 229.956C215.132 225.556 213.29 221.384 210.14 218.308C206.886 215.53 202.67 214.144 198.402 214.449C194.135 214.754 190.158 216.725 187.332 219.937L141.715 267.183C138.91 270.319 137.359 274.379 137.359 278.587C137.359 282.795 138.91 286.855 141.715 289.991L188.147 337.237C189.596 338.817 191.359 340.079 193.322 340.942C195.285 341.805 197.406 342.251 199.551 342.251C201.695 342.251 203.816 341.805 205.78 340.942C207.743 340.079 209.505 338.817 210.955 337.237C212.535 335.787 213.797 334.025 214.66 332.062C215.523 330.099 215.969 327.978 215.969 325.833C215.969 323.689 215.523 321.567 214.66 319.604C213.797 317.641 212.535 315.879 210.955 314.429L193.034 295.693H325.811C331.68 295.754 337.45 294.187 342.483 291.168C347.515 288.148 351.613 283.794 354.322 278.587C357.202 273.315 358.642 267.378 358.499 261.372C358.356 255.366 356.635 249.504 353.507 244.375Z" fill="#2F2F2F"/>
<path d="M144.974 94.4917L178.372 33.3979L240.28 129.519L214.214 123.817C209.907 123.082 205.482 124.022 201.847 126.446C198.212 128.869 195.642 132.592 194.664 136.85C194.188 138.885 194.129 140.996 194.491 143.055C194.853 145.113 195.629 147.077 196.771 148.828C197.912 150.579 199.397 152.08 201.135 153.242C202.873 154.403 204.828 155.2 206.882 155.585L270.42 169.433H273.678C276.839 169.505 279.952 168.656 282.639 166.99C286.125 164.46 288.469 160.653 289.155 156.4L303.003 91.2333C303.738 86.9266 302.798 82.5019 300.374 78.8667C297.951 75.2315 294.228 72.6613 289.97 71.6833C285.663 70.9483 281.239 71.889 277.603 74.3125C273.968 76.736 271.398 80.4585 270.42 84.7167L265.532 109.154L206.068 15.4771C203.283 10.8149 199.351 6.94433 194.645 4.2348C189.939 1.52527 184.617 0.0672698 179.187 0C173.736 0.0608956 168.379 1.42331 163.561 3.97377C158.744 6.52423 154.605 10.1889 151.491 14.6625L116.464 78.2C114.87 81.9309 114.726 86.1222 116.059 89.9538C117.393 93.7854 120.108 96.9816 123.673 98.9172C127.239 100.853 131.398 101.388 135.338 100.419C139.277 99.4501 142.714 97.0459 144.974 93.6771V94.4917Z" fill="#2F2F2F"/>
<path d="M116.463 136.85C116.128 134.643 115.293 132.542 114.023 130.707C112.752 128.872 111.08 127.351 109.132 126.261C107.376 125.029 105.383 124.175 103.28 123.755C101.176 123.334 99.0083 123.355 96.9135 123.817L33.376 136.036C29.2688 137.185 25.7389 139.826 23.4785 143.443C21.2181 147.06 20.3902 151.39 21.1572 155.586C21.5424 157.64 22.3397 159.595 23.5011 161.333C24.6625 163.071 26.1638 164.556 27.9146 165.697C29.6654 166.839 31.6294 167.615 33.688 167.977C35.7466 168.339 37.8573 168.28 39.8926 167.804L61.0718 163.731L5.68013 243.561C2.27373 248.709 0.32377 254.683 0.0369534 260.849C-0.249864 267.016 1.13715 273.145 4.05096 278.588C6.75937 283.794 10.8571 288.149 15.8896 291.168C20.9222 294.188 26.6928 295.754 32.5614 295.694H90.3968C94.7176 295.694 98.8615 293.977 101.917 290.922C104.972 287.867 106.688 283.723 106.688 279.402C106.688 275.081 104.972 270.938 101.917 267.882C98.8615 264.827 94.7176 263.111 90.3968 263.111H32.5614L91.2114 179.208L96.0989 209.348C96.8605 213.083 98.908 216.433 101.885 218.815C104.862 221.196 108.579 222.458 112.391 222.381H115.649C119.907 221.403 123.63 218.833 126.053 215.198C128.477 211.563 129.417 207.138 128.682 202.831L116.463 136.85Z" fill="#2F2F2F"/>
</svg>
