<svg width="52" height="40" viewBox="0 0 52 40" fill="none" xmlns="http://www.w3.org/2000/svg">
<path d="M7.27246 17.7012L6.04199 21.8848L6.02148 21.9531V32H16.2061L16.335 31.6924L18.6465 26.1436L31.8145 28.0244L33.5811 30.8506L29.541 30.2666L21.0508 29.0361L20.6738 28.9814L20.5215 29.3311L19.6602 31.2998L19.3535 32H22.4141L22.4326 31.998C22.5017 31.9927 22.5775 31.9925 22.6475 31.9971L45.4512 35.501L46.1172 35.6035L46.0225 34.9365L44.5645 24.7305L44.2783 24.6299L29.2666 19.3389L29.1865 19.3105H29.002L7.79785 17.3438L7.38867 17.3057L7.27246 17.7012ZM41.834 27.7891C41.121 29.0767 39.5618 29.6953 38.1279 29.1836C36.6958 28.6725 35.8825 27.2041 36.1475 25.7539L41.834 27.7891ZM11.4434 20.1875C12.7976 20.1875 13.8965 21.2864 13.8965 22.6406C13.8965 23.9949 12.7976 25.0938 11.4434 25.0938C10.0891 25.0938 8.99023 23.9949 8.99023 22.6406C8.99023 21.2864 10.0891 20.1875 11.4434 20.1875ZM13.4121 3.4375C12.3172 3.4375 11.3443 4.1491 11.0264 5.20898L8.44238 13.8223L8.2666 14.4072L8.875 14.4639L29.4238 16.3711L29.4463 16.373H29.5977L29.7676 16.458L29.7979 16.4688L41.8564 20.6523L43.0039 21.0498L42.4697 19.96L39.5166 13.9307L39.5127 13.9238L39.4551 13.7949C39.3349 13.488 39.3214 13.1447 39.4219 12.8232L39.4238 12.8164L40.9619 7.64844L41.0605 7.31445L40.7822 7.10547L38.5674 5.44434L38.4512 5.35742L38.3057 5.34668L13.4502 3.43945L13.4316 3.4375H13.4121ZM3.08398 21.5352C3.08797 21.4336 3.1029 21.3282 3.12891 21.2285L4.35547 17.0596L4.49219 16.5977L4.03418 16.4443L0.632812 15.3105L1.5459 12.5703L4.88477 13.7012L5.375 13.8672L5.52344 13.3711L8.23047 4.32715C8.9119 2.05104 11.0295 0.5 13.4121 0.5H13.5225L39.1475 2.46582V2.4668C39.4061 2.48935 39.6601 2.58562 39.8848 2.74512L43.6816 5.5625H43.6826C44.1718 5.94231 44.3727 6.57984 44.1885 7.17285L44.1865 7.17871L42.4639 12.9619L42.4082 13.1484L42.4941 13.3242L46.6777 21.876L46.8145 22.1562H51.3027V25.0938H47.5957L47.6777 25.665L49.3359 37.1494C49.3404 37.2016 49.3407 37.2472 49.3359 37.2998L49.334 37.3223V37.5127C49.3225 37.8486 49.1911 38.1757 48.9678 38.4277L48.9629 38.4326H48.9639L48.9268 38.4678L48.9258 38.4688H48.9248V38.4697L48.9238 38.4707L48.9229 38.4717L48.9219 38.4727H48.9209V38.4736L48.9199 38.4746H48.9189V38.4756H48.918V38.4766L48.9131 38.4814L48.9121 38.4824H48.9111V38.4834H48.9102V38.4844L48.9092 38.4854L48.9082 38.4863H48.9072V38.4873L48.9062 38.4883H48.9053V38.4893L48.9043 38.4902H48.9033V38.4912L48.9023 38.4922H48.9014V38.4932L48.9004 38.4941L48.8994 38.4951H48.8984V38.4961L48.8975 38.4971H48.8965V38.498H48.8955V38.499H48.8945V38.5H48.8936V38.501L48.8926 38.502L48.8916 38.5029H48.8906V38.5039L48.8896 38.5049L48.8887 38.5059H48.8877V38.5068L48.8867 38.5078H48.8857V38.5088L48.8848 38.5098H48.8838V38.5107H48.8828V38.5117L48.8818 38.5127H48.8809V38.5137H48.8799V38.5146H48.8789C48.6173 38.745 48.2776 38.875 47.9268 38.875H42.3193L42.126 38.2939L42.0293 38.0049L41.7275 37.958L22.1631 34.9434L22.125 34.9375H11.3887L11.2764 35.2812L10.0977 38.875H4.55273C3.74453 38.875 3.08398 38.2145 3.08398 37.4062V21.5352Z" fill="#FDDB01" stroke="#151D1F"/>
</svg>
