<svg width="16" height="16" viewBox="0 0 16 16" fill="none" xmlns="http://www.w3.org/2000/svg">
<path d="M14.729 12.181C14.729 12.433 14.673 12.692 14.554 12.944C14.435 13.196 14.281 13.434 14.078 13.658C13.735 14.036 13.357 14.309 12.93 14.484C12.51 14.659 12.055 14.75 11.565 14.75C10.851 14.75 10.088 14.582 9.283 14.239C8.478 13.896 7.673 13.434 6.875 12.853C6.07 12.265 5.307 11.614 4.579 10.893C3.858 10.165 3.207 9.402 2.626 8.604C2.052 7.806 1.59 7.008 1.254 6.217C0.918 5.419 0.75 4.656 0.75 3.928C0.75 3.452 0.834 2.997 1.002 2.577C1.17 2.15 1.436 1.758 1.807 1.408C2.255 0.967 2.745 0.75 3.263 0.75C3.459 0.75 3.655 0.792 3.83 0.876C4.012 0.96 4.173 1.086 4.299 1.268L5.923 3.557C6.049 3.732 6.14 3.893 6.203 4.047C6.266 4.194 6.301 4.341 6.301 4.474C6.301 4.642 6.252 4.81 6.154 4.971C6.063 5.132 5.93 5.3 5.762 5.468L5.23 6.021C5.153 6.098 5.118 6.189 5.118 6.301C5.118 6.357 5.125 6.406 5.139 6.462C5.16 6.518 5.181 6.56 5.195 6.602C5.321 6.833 5.538 7.134 5.846 7.498C6.161 7.862 6.497 8.233 6.861 8.604C7.239 8.975 7.603 9.318 7.974 9.633C8.338 9.941 8.639 10.151 8.877 10.277C8.912 10.291 8.954 10.312 9.003 10.333C9.059 10.354 9.115 10.361 9.178 10.361C9.297 10.361 9.388 10.319 9.465 10.242L9.997 9.717C10.172 9.542 10.34 9.409 10.501 9.325C10.662 9.227 10.823 9.178 10.998 9.178C11.131 9.178 11.271 9.206 11.425 9.269C11.579 9.332 11.74 9.423 11.915 9.542L14.232 11.187C14.414 11.313 14.54 11.46 14.617 11.635C14.687 11.81 14.729 11.985 14.729 12.181Z" stroke="black" stroke-width="1.5" stroke-miterlimit="10"/>
</svg>
