<svg width="23" height="23" viewBox="0 0 23 23" fill="none" xmlns="http://www.w3.org/2000/svg">
<path d="M22 18.1465C22 18.5245 21.9159 18.913 21.7371 19.291C21.5583 19.669 21.327 20.026 21.022 20.362C20.5068 20.929 19.9389 21.3385 19.2974 21.601C18.6665 21.8635 17.983 22 17.2469 22C16.1743 22 15.028 21.748 13.8187 21.2335C12.6094 20.719 11.4001 20.026 10.2013 19.1545C8.99199 18.2725 7.84577 17.296 6.75213 16.2145C5.669 15.1225 4.69104 13.978 3.81823 12.781C2.95593 11.584 2.26189 10.387 1.75714 9.2005C1.25238 8.0035 1 6.859 1 5.767C1 5.053 1.12619 4.3705 1.37857 3.7405C1.63095 3.1 2.03055 2.512 2.58788 1.987C3.26089 1.3255 3.997 1 4.77516 1C5.0696 1 5.36405 1.063 5.62694 1.189C5.90035 1.315 6.14221 1.504 6.3315 1.777L8.77116 5.2105C8.96044 5.473 9.09715 5.7145 9.19179 5.9455C9.28643 6.166 9.33901 6.3865 9.33901 6.586C9.33901 6.838 9.2654 7.09 9.11818 7.3315C8.98147 7.573 8.78167 7.825 8.52929 8.077L7.7301 8.9065C7.61442 9.022 7.56184 9.1585 7.56184 9.3265C7.56184 9.4105 7.57236 9.484 7.59339 9.568C7.62494 9.652 7.65649 9.715 7.67752 9.778C7.8668 10.1245 8.19279 10.576 8.65548 11.122C9.12869 11.668 9.63345 12.2245 10.1803 12.781C10.7481 13.3375 11.2949 13.852 11.8523 14.3245C12.3991 14.7865 12.8513 15.1015 13.2088 15.2905C13.2614 15.3115 13.3245 15.343 13.3981 15.3745C13.4822 15.406 13.5664 15.4165 13.661 15.4165C13.8398 15.4165 13.9765 15.3535 14.0921 15.238L14.8913 14.4505C15.1542 14.188 15.4066 13.9885 15.6485 13.8625C15.8903 13.7155 16.1322 13.642 16.3951 13.642C16.5949 13.642 16.8052 13.684 17.0366 13.7785C17.2679 13.873 17.5098 14.0095 17.7727 14.188L21.2534 16.6555C21.5268 16.8445 21.7161 17.065 21.8317 17.3275C21.9369 17.59 22 17.8525 22 18.1465Z" stroke="black" stroke-width="2" stroke-miterlimit="10"/>
</svg>
