<svg width="29" height="28" viewBox="0 0 29 28" fill="none" xmlns="http://www.w3.org/2000/svg">
<path d="M28.0938 5.82227H0.90625C0.665898 5.82227 0.435389 5.91775 0.265435 6.0877C0.0954797 6.25766 0 6.48816 0 6.72852L0 21.2285C0 21.4689 0.0954797 21.6994 0.265435 21.8693C0.435389 22.0393 0.665898 22.1348 0.90625 22.1348H28.0938C28.3341 22.1348 28.5646 22.0393 28.7346 21.8693C28.9045 21.6994 29 21.4689 29 21.2285V6.72852C29 6.48816 28.9045 6.25766 28.7346 6.0877C28.5646 5.91775 28.3341 5.82227 28.0938 5.82227ZM22.7378 20.3223H6.26219C6.07331 19.2108 5.54362 18.1855 4.74643 17.3883C3.94924 16.5911 2.92397 16.0615 1.8125 15.8726V12.0845C2.92397 11.8956 3.94924 11.3659 4.74643 10.5687C5.54362 9.77151 6.07331 8.74623 6.26219 7.63477H22.7378C22.9267 8.74623 23.4564 9.77151 24.2536 10.5687C25.0508 11.3659 26.076 11.8956 27.1875 12.0845V15.8726C26.076 16.0615 25.0508 16.5911 24.2536 17.3883C23.4564 18.1855 22.9267 19.2108 22.7378 20.3223ZM27.1875 10.2266C26.5641 10.0639 25.9954 9.738 25.5398 9.28244C25.0843 8.82688 24.7584 8.25814 24.5956 7.63477H27.1875V10.2266ZM4.40438 7.63477C4.24165 8.25814 3.91573 8.82688 3.46017 9.28244C3.00461 9.738 2.43587 10.0639 1.8125 10.2266V7.63477H4.40438ZM1.8125 17.7304C2.43587 17.8931 3.00461 18.219 3.46017 18.6746C3.91573 19.1302 4.24165 19.6989 4.40438 20.3223H1.8125V17.7304ZM24.5956 20.3223C24.7584 19.6989 25.0843 19.1302 25.5398 18.6746C25.9954 18.219 26.5641 17.8931 27.1875 17.7304V20.3223H24.5956Z" fill="black"/>
<path d="M6.80586 0.121672C6.70266 0.0620106 6.5887 0.0232955 6.47051 0.00774458C6.35232 -0.00780636 6.23223 0.000112372 6.11711 0.0310472C5.88493 0.0913626 5.68613 0.241275 5.5643 0.447922L3.7518 3.55636C3.63162 3.76547 3.59943 4.01375 3.66232 4.24659C3.7252 4.47942 3.878 4.67775 4.08711 4.79792C4.29621 4.9181 4.5445 4.95029 4.77733 4.8874C5.01017 4.82452 5.20849 4.67172 5.32867 4.46261L6.68805 2.14261L11.2827 4.79792C11.4918 4.9181 11.7401 4.95029 11.973 4.8874C12.2058 4.82452 12.4041 4.67172 12.5243 4.46261C12.6445 4.2535 12.6767 4.00522 12.6138 3.77238C12.5509 3.53955 12.3981 3.34122 12.189 3.22105L6.80586 0.121672Z" fill="black"/>
<path d="M22.1941 27.8352C22.3313 27.9166 22.4876 27.9604 22.6472 27.962C22.7252 27.9752 22.8048 27.9752 22.8828 27.962C23.115 27.9017 23.3138 27.7518 23.4356 27.5452L25.2481 24.4367C25.3683 24.2276 25.4005 23.9793 25.3376 23.7465C25.2747 23.5137 25.1219 23.3153 24.9128 23.1952C24.7037 23.075 24.4554 23.0428 24.2226 23.1057C23.9897 23.1686 23.7914 23.3214 23.6712 23.5305L22.33 25.8505L17.7353 23.1952C17.5262 23.075 17.2779 23.0428 17.0451 23.1057C16.8122 23.1686 16.6139 23.3214 16.4937 23.5305C16.3736 23.7396 16.3414 23.9879 16.4043 24.2207C16.4671 24.4535 16.6199 24.6519 16.8291 24.772L22.1941 27.8352Z" fill="black"/>
<path d="M14.5 8.54102C13.4246 8.54102 12.3733 8.85992 11.4791 9.4574C10.5849 10.0549 9.88796 10.9041 9.47641 11.8977C9.06486 12.8912 8.95718 13.9845 9.16698 15.0393C9.37679 16.0941 9.89466 17.063 10.6551 17.8234C11.4156 18.5839 12.3844 19.1017 13.4392 19.3115C14.494 19.5213 15.5873 19.4137 16.5808 19.0021C17.5744 18.5906 18.4236 17.8936 19.0211 16.9994C19.6186 16.1052 19.9375 15.054 19.9375 13.9785C19.9375 12.5364 19.3646 11.1534 18.3449 10.1336C17.3252 9.11389 15.9421 8.54102 14.5 8.54102ZM14.5 17.6035C13.783 17.6035 13.0822 17.3909 12.4861 16.9926C11.8899 16.5943 11.4253 16.0281 11.1509 15.3657C10.8766 14.7034 10.8048 13.9745 10.9447 13.2713C11.0845 12.5681 11.4298 11.9222 11.9367 11.4153C12.4437 10.9083 13.0896 10.563 13.7928 10.4232C14.496 10.2833 15.2248 10.3551 15.8872 10.6295C16.5496 10.9038 17.1158 11.3684 17.5141 11.9646C17.9124 12.5607 18.125 13.2616 18.125 13.9785C18.125 14.9399 17.7431 15.862 17.0633 16.5418C16.3834 17.2216 15.4614 17.6035 14.5 17.6035Z" fill="black"/>
</svg>
