<svg width="63" height="89" viewBox="0 0 63 89" fill="none" xmlns="http://www.w3.org/2000/svg">
<path d="M51.1701 10.2512L52.5138 14.3293C52.9147 15.6084 53.7419 16.7114 54.8576 17.4543L58.342 19.7043C59.4833 20.471 60.3275 21.6056 60.7341 22.9191C61.1406 24.2325 61.085 25.6456 60.5763 26.9231L59.2638 30.1887C58.6784 31.6316 58.6784 33.2458 59.2638 34.6887L60.5607 37.8137C61.0762 39.0641 61.1529 40.4522 60.7783 41.7517C60.4038 43.0513 59.6001 44.1857 58.4982 44.9699L55.4201 47.1887C54.3146 47.9835 53.5106 49.1289 53.1388 50.4387L52.092 54.2512C51.7133 55.5863 50.8835 56.7489 49.7439 57.5409C48.6043 58.3329 47.2254 58.7054 45.842 58.5949L42.5607 58.3137C41.0184 58.1888 39.4868 58.6584 38.2795 59.6262L35.1545 62.1731C34.0854 63.0476 32.7467 63.5254 31.3654 63.5254C29.9842 63.5254 28.6455 63.0476 27.5763 62.1731L24.8107 60.0012C23.733 59.1123 22.3796 58.6261 20.9826 58.6262H16.1545C14.7924 58.6265 13.4709 58.1622 12.4084 57.31C11.3459 56.4577 10.6059 55.2684 10.3107 53.9387L9.45135 50.2668C9.11466 48.7947 8.23248 47.5049 6.9826 46.6574L4.12323 44.6731C3.02209 43.9233 2.20176 42.8285 1.79155 41.5611C1.38134 40.2937 1.40458 38.9258 1.8576 37.6731L3.20135 33.9856C3.69379 32.6439 3.69379 31.171 3.20135 29.8293L1.99823 26.6106C1.52061 25.3271 1.49402 23.9193 1.92282 22.6186C2.35163 21.318 3.21029 20.2021 4.3576 19.4543L7.4826 17.4074C8.7073 16.6085 9.601 15.3928 9.99822 13.9856L10.9514 10.5793C11.3297 9.24284 12.1588 8.07846 13.2981 7.28383C14.4373 6.48921 15.8165 6.11331 17.2013 6.21994L20.217 6.48557C21.7593 6.61045 23.2909 6.14089 24.4982 5.17307L27.3576 2.86057C28.4304 1.9808 29.7749 1.5 31.1623 1.5C32.5497 1.5 33.8942 1.9808 34.967 2.86057L37.5607 5.01682C38.758 6.01965 40.3006 6.51328 41.8576 6.39182L44.9826 6.15744C46.3236 6.04719 47.6628 6.39089 48.7849 7.13333C49.9071 7.87577 50.7471 8.97386 51.1701 10.2512Z" stroke="black" stroke-width="3"/>
<path d="M49.8888 57.7666L60.8263 76.8447C61.1075 77.3291 60.8263 77.8447 60.4669 77.7041L47.0138 72.2354C46.9624 72.2189 46.9081 72.2138 46.8546 72.2202C46.8011 72.2267 46.7496 72.2446 46.7036 72.2728C46.6576 72.301 46.6182 72.3387 46.5882 72.3835C46.5581 72.4283 46.5381 72.479 46.5294 72.5322L44.8732 86.5947C44.7794 87.0479 44.2169 86.9854 43.9357 86.501L31.2325 63.5166" stroke="black" stroke-width="3" stroke-linecap="round"/>
<path d="M31.2326 63.5166L19.4982 86.5635C19.2013 87.0479 18.6701 87.1104 18.5607 86.6729L16.5763 72.2979C16.5657 72.246 16.5443 72.197 16.5134 72.1541C16.4826 72.1111 16.4429 72.0752 16.3972 72.0486C16.3515 72.022 16.3006 72.0055 16.248 71.9999C16.1954 71.9944 16.1422 72.0001 16.0919 72.0166L3.01381 77.6572C2.57631 77.7822 2.34194 77.2822 2.63881 76.7822L13.5763 57.7666" stroke="black" stroke-width="3" stroke-linecap="round"/>
<path d="M31.3732 19.2042L35.5919 27.7823C35.6047 27.8046 35.6228 27.8234 35.6446 27.837C35.6664 27.8506 35.6913 27.8587 35.7169 27.8604L45.0919 29.2354C45.2169 29.2354 45.2794 29.4229 45.1857 29.501L38.3419 36.1729C38.3296 36.1943 38.3231 36.2185 38.3231 36.2432C38.3231 36.2679 38.3296 36.2921 38.3419 36.3135L39.9044 45.6885C39.9099 45.7168 39.9076 45.746 39.8975 45.7729C39.8875 45.7999 39.8702 45.8236 39.8476 45.8414C39.825 45.8591 39.7979 45.8703 39.7693 45.8737C39.7407 45.877 39.7118 45.8724 39.6857 45.8604L31.2169 41.4073C31.1972 41.3907 31.1723 41.3817 31.1466 41.3817C31.1209 41.3817 31.096 41.3907 31.0763 41.4073L22.7013 45.9385C22.6743 45.9491 22.645 45.9528 22.6163 45.949C22.5875 45.9453 22.5601 45.9343 22.5367 45.9172C22.5133 45.9 22.4947 45.8772 22.4825 45.8509C22.4702 45.8246 22.4649 45.7956 22.4669 45.7667L24.0294 36.3917C24.0404 36.3698 24.0461 36.3458 24.0461 36.3213C24.0461 36.2969 24.0404 36.2728 24.0294 36.251L17.17 29.5792C17.154 29.5567 17.1435 29.5306 17.1396 29.5033C17.1358 29.4759 17.1385 29.448 17.1477 29.4219C17.1569 29.3959 17.1723 29.3724 17.1925 29.3535C17.2127 29.3346 17.2372 29.3209 17.2638 29.3135L26.7169 27.9385C26.7429 27.9383 26.7684 27.9309 26.7905 27.9172C26.8125 27.9034 26.8304 27.8837 26.8419 27.8604L31.0763 19.2823C31.0738 19.246 31.084 19.21 31.1052 19.1804C31.1264 19.1509 31.1572 19.1296 31.1924 19.1204C31.2276 19.1111 31.2649 19.1144 31.2979 19.1297C31.3309 19.145 31.3575 19.1713 31.3732 19.2042Z" stroke="black" stroke-width="3" stroke-linecap="round"/>
</svg>
