<svg width="92" height="69" viewBox="0 0 92 69" fill="none" xmlns="http://www.w3.org/2000/svg">
<path d="M83.1727 42.9902C82.1946 42.9902 81.402 43.7828 81.402 44.761V58.9124H54.224C53.2458 58.9124 52.4532 59.705 52.4532 60.6832C52.4532 61.6614 53.2458 62.454 54.224 62.454H62.8772C63.6285 65.644 66.4969 68.0268 69.9131 68.0268C73.3293 68.0268 76.1977 65.6442 76.9493 62.454H83.1725C84.1507 62.454 84.9433 61.6614 84.9433 60.6832V44.761C84.9435 43.7828 84.1507 42.9902 83.1727 42.9902ZM69.9131 64.4849C68.4757 64.4849 67.2312 63.6567 66.6228 62.4537H73.2037C72.5955 63.6565 71.3508 64.4849 69.9131 64.4849Z" fill="black"/>
<path d="M33.7122 58.8012H29.3459V31.9502V22.0034C29.3459 18.794 31.957 16.1832 35.1663 16.1832H45.5594C46.5376 16.1832 47.3302 15.3906 47.3302 14.4124C47.3302 13.4342 46.5376 12.6416 45.5594 12.6416H35.1663C30.0042 12.6416 25.8043 16.8412 25.8043 22.0034V30.1794H15.5723C12.1981 30.1794 9.12591 31.8938 7.35371 34.7648L0.263965 46.2515C0.259715 46.2586 0.256646 46.2664 0.252396 46.2735C0.216744 46.333 0.184162 46.3944 0.155357 46.4581C0.153232 46.4629 0.150635 46.4676 0.14851 46.4723C0.118052 46.5417 0.092553 46.6135 0.0710675 46.6874C0.067762 46.699 0.0651648 46.7108 0.0620955 46.7223C0.0460404 46.7825 0.0330546 46.8437 0.0233743 46.906C0.0205411 46.9235 0.0177078 46.941 0.0153468 46.9584C0.00637482 47.0316 0 47.1055 0 47.1813V47.1818V60.5722C0 61.5504 0.792839 62.343 1.77078 62.343H8.00725C8.71769 65.5887 11.6133 68.0263 15.0689 68.0263C18.5245 68.0263 21.4201 65.5885 22.1305 62.343H27.5751H33.7122C34.6901 62.343 35.483 61.5504 35.483 60.5722C35.483 59.594 34.6901 58.8012 33.7122 58.8012ZM3.54157 48.9521H16.0964C19.948 48.9521 23.0811 45.8188 23.0811 41.9672V41.8621C23.0811 38.0106 19.9478 34.8772 16.0964 34.8772C15.1185 34.8772 14.3256 35.6698 14.3256 36.648C14.3256 37.6262 15.1185 38.4188 16.0964 38.4188C17.9952 38.4188 19.5395 39.9634 19.5395 41.8621V41.9672C19.5395 43.8659 17.9949 45.4105 16.0964 45.4105H4.94497L10.3673 36.6251C11.4896 34.8066 13.4353 33.721 15.572 33.721H25.8041V58.8014H22.0167C21.1486 55.7824 18.3635 53.5663 15.0689 53.5663C11.7743 53.5663 8.98944 55.7824 8.12105 58.8014H3.54157V48.9521ZM15.0689 64.4847C13.0351 64.4847 11.3805 62.8301 11.3805 60.7963C11.3805 58.7625 13.0351 57.1079 15.0689 57.1079C17.1027 57.1079 18.7573 58.7625 18.7573 60.7963C18.7573 62.8301 17.1027 64.4847 15.0689 64.4847Z" fill="black"/>
<path d="M43.52 53.5664C39.5333 53.5664 36.29 56.8098 36.29 60.7964C36.29 64.783 39.5333 68.0264 43.52 68.0264C47.5066 68.0264 50.75 64.783 50.75 60.7964C50.75 56.8098 47.5066 53.5664 43.52 53.5664ZM43.52 64.4848C41.4862 64.4848 39.8315 62.8302 39.8315 60.7964C39.8315 58.7626 41.4862 57.108 43.52 57.108C45.5538 57.108 47.2084 58.7626 47.2084 60.7964C47.2084 62.8302 45.5535 64.4848 43.52 64.4848Z" fill="black"/>
<path d="M71.3779 0C60.0071 0 50.7561 9.25105 50.7561 20.6221C50.7561 31.9931 60.0071 41.2441 71.3779 41.2441C82.749 41.2441 92 31.9931 92 20.6221C92 9.25105 82.7492 0 71.3779 0ZM71.3779 37.7023C61.9597 37.7023 54.2977 30.04 54.2977 20.6218C54.2977 11.2036 61.9597 3.54133 71.3779 3.54133C80.7961 3.54133 88.4584 11.2036 88.4584 20.6218C88.4584 30.04 80.7961 37.7023 71.3779 37.7023Z" fill="black"/>
<path d="M73.1487 19.8889V8.75516C73.1487 7.77698 72.3561 6.98438 71.3779 6.98438C70.3997 6.98438 69.6071 7.77698 69.6071 8.75516V20.6225C69.6071 21.0921 69.7936 21.5423 70.1256 21.8748L75.1884 26.9376C75.5343 27.2832 75.9876 27.4561 76.4407 27.4561C76.8938 27.4561 77.3471 27.2832 77.693 26.9376C78.3845 26.2458 78.3845 25.1248 77.693 24.4332L73.1487 19.8889Z" fill="black"/>
</svg>
