<svg width="45" height="37" viewBox="0 0 45 37" fill="none" xmlns="http://www.w3.org/2000/svg">
<path d="M40 28.625H4.25C2.4625 28.625 1 27.1625 1 25.375V18.875C1 15.3 3.925 12.375 7.5 12.375H36.75C40.325 12.375 43.25 15.3 43.25 18.875V25.375C43.25 27.1625 41.7875 28.625 40 28.625Z" stroke="#FDDB01" stroke-width="2" stroke-miterlimit="10" stroke-linecap="round" stroke-linejoin="round"/>
<path d="M38.375 12.375H5.875L9.125 4.9C10.1 2.625 12.375 1 14.975 1H29.1125C31.7125 1 33.9875 2.625 35.125 4.9L38.375 12.375Z" stroke="#FDDB01" stroke-width="2" stroke-miterlimit="10" stroke-linecap="round" stroke-linejoin="round"/>
<path d="M12.375 28.625H2.625V31.875C2.625 33.6625 4.0875 35.125 5.875 35.125H9.125C10.9125 35.125 12.375 33.6625 12.375 31.875V28.625Z" stroke="#FDDB01" stroke-width="2" stroke-miterlimit="10" stroke-linecap="round" stroke-linejoin="round"/>
<path d="M41.625 28.625H31.875V31.875C31.875 33.6625 33.3375 35.125 35.125 35.125H38.375C40.1625 35.125 41.625 33.6625 41.625 31.875V28.625Z" stroke="#FDDB01" stroke-width="2" stroke-miterlimit="10" stroke-linecap="round" stroke-linejoin="round"/>
<path d="M1 10.75H6.525" stroke="#FDDB01" stroke-width="2" stroke-miterlimit="10" stroke-linecap="round" stroke-linejoin="round"/>
<path d="M38.375 10.75H43.25" stroke="#FDDB01" stroke-width="2" stroke-miterlimit="10" stroke-linecap="round" stroke-linejoin="round"/>
<path d="M30.25 28.625H14L16.275 23.9125C16.7625 22.775 17.9 22.125 19.2 22.125H24.8875C26.1875 22.125 27.325 22.775 27.8125 23.9125L30.25 28.625Z" stroke="#FDDB01" stroke-width="2" stroke-miterlimit="10" stroke-linecap="round" stroke-linejoin="round"/>
<path d="M5.875 20.5H10.75" stroke="#FDDB01" stroke-width="2" stroke-miterlimit="10" stroke-linecap="round" stroke-linejoin="round"/>
<path d="M33.5 20.5H38.375" stroke="#FDDB01" stroke-width="2" stroke-miterlimit="10" stroke-linecap="round" stroke-linejoin="round"/>
</svg>
